<?xml version="1.0" standalone="no"?>
<!DOCTYPE svg PUBLIC "-//W3C//DTD SVG 20010904//EN"
 "http://www.w3.org/TR/2001/REC-SVG-20010904/DTD/svg10.dtd">
<svg version="1.0" xmlns="http://www.w3.org/2000/svg"
 width="362.000000pt" height="362.000000pt" viewBox="0 0 362.000000 362.000000"
 preserveAspectRatio="xMidYMid meet">
<metadata>
Created by potrace 1.11, written by Peter Selinger 2001-2013
</metadata>
<g transform="translate(0.000000,362.000000) scale(0.100000,-0.100000)"
fill="#000000" stroke="none">
<path d="M2822 3265 c-191 -54 -324 -194 -376 -396 -33 -129 -28 -379 9 -502
48 -157 152 -263 310 -313 32 -10 35 -13 15 -13 -61 -2 -134 -41 -192 -103
-41 -43 -42 -46 -28 -68 9 -13 11 -13 20 0 7 11 12 12 18 4 11 -18 163 -13
183 6 73 71 144 98 227 85 46 -7 86 -29 130 -72 13 -13 31 -23 40 -24 9 -1 34
-3 54 -4 21 -2 40 -1 42 3 2 4 7 39 11 78 l7 71 -32 12 c-18 6 -54 11 -79 12
-54 1 -51 2 52 24 l78 16 -3 142 -3 142 -69 0 -68 0 -18 -57 c-23 -75 -51
-112 -100 -132 -74 -30 -163 -15 -218 37 -34 31 -69 105 -89 184 -25 99 -25
399 0 503 23 99 72 187 126 225 38 27 51 30 117 30 71 0 75 -1 110 -36 21 -22
44 -59 54 -90 l19 -54 71 -3 71 -3 -3 138 -3 138 -55 13 c-85 21 -363 25 -428
7z"/>
<path d="M270 3235 c0 -30 5 -37 33 -48 65 -28 62 -2 62 -527 0 -454 -1 -479
-19 -499 -10 -11 -28 -23 -40 -27 -27 -9 -36 -22 -36 -56 l0 -28 251 0 250 0
-3 37 c-3 31 -8 38 -35 47 -67 23 -68 25 -71 258 l-3 211 75 -5 c90 -6 108
-18 131 -89 l17 -49 59 0 59 0 0 200 0 200 -60 0 -60 0 -10 -42 c-6 -24 -20
-54 -30 -68 -17 -22 -27 -25 -99 -28 l-81 -4 0 217 0 217 114 -3 c139 -5 156
-14 204 -112 l34 -68 66 3 67 3 3 148 3 147 -441 0 -440 0 0 -35z"/>
<path d="M1250 3105 l0 -165 69 0 69 0 11 46 c16 64 47 121 75 139 13 9 53 18
90 22 l67 6 -3 -485 c-3 -454 -4 -487 -21 -506 -10 -11 -30 -23 -45 -27 -32
-8 -42 -21 -42 -57 l0 -28 256 0 255 0 -3 37 c-3 31 -8 38 -35 47 -72 24 -68
-7 -71 531 l-3 485 38 0 c110 -1 149 -31 185 -142 l22 -68 68 0 68 0 0 165 0
165 -525 0 -525 0 0 -165z"/>
<path d="M285 2030 c-6 -9 5 -21 62 -66 19 -15 38 -42 44 -65 12 -40 23 -49
32 -26 4 9 7 9 14 0 5 -7 25 -11 48 -9 22 2 66 4 98 5 51 1 57 3 57 22 0 42
33 84 74 95 27 6 51 36 39 48 -11 10 -461 7 -468 -4z"/>
<path d="M1540 2020 c0 -13 11 -25 33 -34 34 -14 77 -59 77 -80 0 -6 10 -20
21 -30 18 -15 23 -16 31 -5 7 11 11 11 15 2 3 -9 26 -11 81 -7 95 6 102 9 102
32 0 28 37 70 78 90 20 9 38 25 40 35 3 16 -13 17 -237 17 -234 0 -241 -1
-241 -20z"/>
</g>
</svg>
